<svg width="286" height="22" viewBox="0 0 286 22" fill="none" xmlns="http://www.w3.org/2000/svg">
    <path
        d="M1.84661 18.0059C0.745291 18.0906 -0.0788255 19.0521 0.00589108 20.1534C0.0906076 21.2547 1.05208 22.0788 2.15339 21.9941L1.84661 18.0059ZM167.673 19.6128L166.825 21.4242L167.673 19.6128ZM169.403 19.8605L169.097 17.884L169.403 19.8605ZM145.715 9.33463L144.867 11.146L145.715 9.33463ZM2.15339 21.9941L144.366 11.0546L144.06 7.06643L1.84661 18.0059L2.15339 21.9941ZM144.867 11.146L166.825 21.4242L168.521 17.8014L146.563 7.52325L144.867 11.146ZM169.708 21.8371L285.305 3.97655L284.695 0.0234531L169.097 17.884L169.708 21.8371ZM166.825 21.4242C167.724 21.8449 168.727 21.9886 169.708 21.8371L169.097 17.884C168.901 17.9143 168.7 17.8855 168.521 17.8014L166.825 21.4242ZM144.366 11.0546C144.538 11.0414 144.711 11.0729 144.867 11.146L146.563 7.52325C145.782 7.15766 144.919 7.00029 144.06 7.06643L144.366 11.0546Z"
        fill="#2804F6" />
</svg>
    