<svg width="15" height="15" viewBox="0 0 15 15" fill="none" xmlns="http://www.w3.org/2000/svg">
    <path
        d="M1.59862 0.539054C1.30172 0.242147 0.823199 0.236372 0.529834 0.529736C0.236477 0.823093 0.242245 1.30162 0.539152 1.59853L13.6031 14.6625C13.9 14.9594 14.3786 14.9652 14.672 14.6719C14.9653 14.3785 14.9595 13.9 14.6626 13.603L1.59862 0.539054Z"
        fill="#f9f9f9" />
    <path
        d="M0.539054 13.6031C0.242147 13.9 0.236386 14.3785 0.529693 14.6718C0.823072 14.9652 1.30161 14.9594 1.59851 14.6625L14.6625 1.59856C14.9594 1.30164 14.9652 0.823073 14.6718 0.529695C14.3785 0.236387 13.9 0.242185 13.603 0.539099L0.539054 13.6031Z"
        fill="#f9f9f9" />
</svg>    