<svg width="141" height="72" viewBox="0 0 141 72" fill="none" xmlns="http://www.w3.org/2000/svg">
    <rect x="12.5377" width="50.8014" height="17.7307" rx="8.86537" transform="rotate(45 12.5377 0)"
        fill="#D0D0D0" />
    <rect y="59.4625" width="50.8014" height="17.7307" rx="8.86537"
        transform="rotate(-45 0 59.4625)" fill="#2804F6" />
    <path
        d="M65.3228 29.6416V32.3586H61.2568V42.9416H58.1408V32.3586H54.0938V29.6416H65.3228ZM72.5061 29.6416C73.8741 29.6416 75.0711 29.9139 76.0971 30.4586C77.1358 31.0033 77.9338 31.7823 78.4911 32.7956C79.0611 33.7963 79.3461 34.9616 79.3461 36.2916C79.3461 37.6216 79.0611 38.7933 78.4911 39.8066C77.9338 40.8073 77.1358 41.5799 76.0971 42.1246C75.0711 42.6693 73.8741 42.9416 72.5061 42.9416H67.0531V29.6416H72.5061ZM72.5061 40.2246C73.6208 40.2246 74.5201 39.8699 75.2041 39.1606C75.8881 38.4513 76.2301 37.4949 76.2301 36.2916C76.2301 35.4936 76.0718 34.8033 75.7551 34.2206C75.4511 33.6253 75.0141 33.1693 74.4441 32.8526C73.8868 32.5233 73.2408 32.3586 72.5061 32.3586H70.1691V40.2246H72.5061ZM93.3451 29.6416H96.1381V42.9416H93.0411V34.6196L89.1271 39.4076H88.5191L84.5671 34.6006V42.9416H81.4701V29.6416H84.2631L88.8041 35.3036L93.3451 29.6416ZM100.125 43.1316C99.6182 43.1316 99.2002 42.9796 98.8709 42.6756C98.5542 42.3716 98.3959 41.9853 98.3959 41.5166C98.3959 41.0479 98.5542 40.6616 98.8709 40.3576C99.2002 40.0536 99.6182 39.9016 100.125 39.9016C100.619 39.9016 101.024 40.0536 101.341 40.3576C101.67 40.6616 101.835 41.0479 101.835 41.5166C101.835 41.9853 101.67 42.3716 101.341 42.6756C101.024 42.9796 100.619 43.1316 100.125 43.1316ZM113.329 33.5556V42.9416H110.745L110.555 41.8206C109.757 42.6946 108.718 43.1316 107.439 43.1316C106.565 43.1316 105.786 42.9289 105.102 42.5236C104.431 42.1056 103.905 41.5293 103.525 40.7946C103.145 40.0473 102.955 39.1986 102.955 38.2486C102.955 37.2986 103.145 36.4563 103.525 35.7216C103.905 34.9743 104.431 34.3979 105.102 33.9926C105.786 33.5746 106.565 33.3656 107.439 33.3656C108.072 33.3656 108.655 33.4796 109.187 33.7076C109.719 33.9229 110.175 34.2396 110.555 34.6576L110.745 33.5556H113.329ZM108.142 40.6236C108.801 40.6236 109.339 40.4083 109.757 39.9776C110.175 39.5343 110.384 38.9579 110.384 38.2486C110.384 37.5393 110.175 36.9693 109.757 36.5386C109.339 36.0953 108.801 35.8736 108.142 35.8736C107.483 35.8736 106.945 36.0953 106.527 36.5386C106.122 36.9819 105.919 37.5519 105.919 38.2486C105.919 38.9453 106.122 39.5153 106.527 39.9586C106.945 40.4019 107.483 40.6236 108.142 40.6236ZM120.905 33.3466C121.336 33.3466 121.766 33.4289 122.197 33.5936C122.628 33.7456 123.001 33.9736 123.318 34.2776L122.064 36.4626C121.798 36.2979 121.551 36.1776 121.323 36.1016C121.095 36.0256 120.854 35.9876 120.601 35.9876C119.968 35.9876 119.467 36.1903 119.1 36.5956C118.733 37.0009 118.549 37.5963 118.549 38.3816V42.9416H115.566V33.5556H118.169L118.397 34.7336C119.005 33.8089 119.841 33.3466 120.905 33.3466Z"
        fill="#2804F6" />
</svg>
    