<svg width="467" height="92" viewBox="0 0 467 92" fill="none" xmlns="http://www.w3.org/2000/svg">
    <path
        d="M75.696 0.399994V18.704H48.304V90H27.312V18.704H0.0480001V0.399994H75.696ZM124.089 0.399994C133.305 0.399994 141.369 2.23466 148.281 5.904C155.278 9.57333 160.654 14.8213 164.409 21.648C168.249 28.3893 170.169 36.24 170.169 45.2C170.169 54.16 168.249 62.0533 164.409 68.88C160.654 75.6213 155.278 80.8267 148.281 84.496C141.369 88.1653 133.305 90 124.089 90H87.353V0.399994H124.089ZM124.089 71.696C131.598 71.696 137.657 69.3067 142.265 64.528C146.873 59.7493 149.177 53.3067 149.177 45.2C149.177 39.824 148.11 35.1733 145.977 31.248C143.929 27.2373 140.985 24.1653 137.145 22.032C133.39 19.8133 129.038 18.704 124.089 18.704H108.345V71.696H124.089ZM264.478 0.399994H283.294V90H262.43V33.936L236.062 66.192H231.966L205.342 33.808V90H184.478V0.399994H203.294L233.886 38.544L264.478 0.399994ZM310.152 91.28C306.739 91.28 303.923 90.256 301.704 88.208C299.571 86.16 298.504 83.5573 298.504 80.4C298.504 77.2427 299.571 74.64 301.704 72.592C303.923 70.544 306.739 69.52 310.152 69.52C313.48 69.52 316.211 70.544 318.344 72.592C320.563 74.64 321.672 77.2427 321.672 80.4C321.672 83.5573 320.563 86.16 318.344 88.208C316.211 90.256 313.48 91.28 310.152 91.28ZM399.106 26.768V90H381.698L380.418 82.448C375.042 88.336 368.045 91.28 359.426 91.28C353.538 91.28 348.29 89.9147 343.682 87.184C339.159 84.368 335.618 80.4853 333.058 75.536C330.498 70.5013 329.218 64.784 329.218 58.384C329.218 51.984 330.498 46.3093 333.058 41.36C335.618 36.3253 339.159 32.4427 343.682 29.712C348.29 26.896 353.538 25.488 359.426 25.488C363.693 25.488 367.618 26.256 371.202 27.792C374.786 29.2427 377.858 31.376 380.418 34.192L381.698 26.768H399.106ZM364.162 74.384C368.599 74.384 372.226 72.9333 375.042 70.032C377.858 67.0453 379.266 63.1627 379.266 58.384C379.266 53.6053 377.858 49.7653 375.042 46.864C372.226 43.8773 368.599 42.384 364.162 42.384C359.725 42.384 356.098 43.8773 353.282 46.864C350.551 49.8507 349.186 53.6907 349.186 58.384C349.186 63.0773 350.551 66.9173 353.282 69.904C356.098 72.8907 359.725 74.384 364.162 74.384ZM450.145 25.36C453.046 25.36 455.948 25.9147 458.849 27.024C461.75 28.048 464.268 29.584 466.401 31.632L457.953 46.352C456.161 45.2427 454.497 44.432 452.961 43.92C451.425 43.408 449.804 43.152 448.097 43.152C443.83 43.152 440.46 44.5173 437.985 47.248C435.51 49.9787 434.273 53.9893 434.273 59.28V90H414.177V26.768H431.713L433.249 34.704C437.345 28.4747 442.977 25.36 450.145 25.36Z"
        fill="#F3F0D0" />
</svg>
    